<svg xmlns="http://www.w3.org/2000/svg" width="256" height="256" viewBox="0 0 100 100"><rect width="100" height="100" rx="20" fill="#883869"></rect><path d="M41.16 73.90L41.16 73.90Q40.79 74.05 40.05 74.23Q39.31 74.42 38.42 74.42L38.42 74.42Q35.24 74.42 35.24 71.76L35.24 71.76L35.24 26.10Q35.61 25.95 36.38 25.77Q37.16 25.58 38.05 25.58L38.05 25.58Q41.16 25.58 41.16 28.24L41.16 28.24L41.16 41.56Q42.93 40.53 45.34 39.71Q47.74 38.90 50.78 38.90L50.78 38.90Q53.89 38.90 56.44 39.71Q58.99 40.53 60.84 42.19Q62.69 43.86 63.73 46.41Q64.76 48.96 64.76 52.37L64.76 52.37L64.76 73.90Q64.39 74.05 63.62 74.23Q62.84 74.42 62.02 74.42L62.02 74.42Q58.84 74.42 58.84 71.76L58.84 71.76L58.84 52.52Q58.84 48.08 56.40 45.93Q53.96 43.78 49.96 43.78L49.96 43.78Q47.37 43.78 45.12 44.71Q42.86 45.63 41.16 46.97L41.16 46.97L41.16 73.90Z" fill="#fff"></path></svg>